<?xml version="1.0" encoding="utf-8"?>
<!-- Generator: Adobe Illustrator 21.1.0, SVG Export Plug-In . SVG Version: 6.00 Build 0)  -->
<svg version="1.0" id="Layer_1" xmlns="http://www.w3.org/2000/svg" xmlns:xlink="http://www.w3.org/1999/xlink" x="0px" y="0px"
	 viewBox="0 0 79 77" style="enable-background:new 0 0 79 77;" xml:space="preserve">
<style type="text/css">
	.st0{fill:#545654;}
</style>
<g>
	<path class="st0" d="M12.2,49h11c0,11,9,20,20,20s20-9,20-20h5c0.6,0,1-0.4,1-1V22c0-0.6-0.4-1-1-1h-11v-7c0-2.8-2.2-5-5-5
		c-1.3,0-2.4,0.5-3.3,1.3C48.2,8.4,46.4,7,44.2,7s-4,1.4-4.7,3.3c-0.9-0.8-2-1.3-3.3-1.3c-2.2,0-4,1.4-4.7,3.3
		c-0.9-0.8-2-1.3-3.3-1.3c-2.8,0-5,2.2-5,5v5h-11c-0.6,0-1,0.4-1,1v26C11.2,48.6,11.6,49,12.2,49z M61.2,49c0,9.9-8.1,18-18,18
		s-18-8.1-18-18h17.5c-0.9,1.5-1.5,3.2-1.5,5c0,0.6,0.4,1,1,1s1-0.4,1-1c0-2,0.8-3.8,2.2-5.3c0,0,0,0,0.1-0.1c2-2.2,5.2-3.7,8.8-3.7
		c0.6,0,1-0.4,1-1v-6c0-3.6,2.5-6.5,6-6.9L61.2,49L61.2,49z M52.2,11c1.7,0,3,1.3,3,3v7h-6v-7C49.2,12.3,50.5,11,52.2,11z M41.2,12
		c0-1.7,1.3-3,3-3s3,1.3,3,3v2v7h-6v-7V12z M33.2,14c0-1.7,1.3-3,3-3s3,1.3,3,3v7h-6v-5V14z M25.2,16c0-1.7,1.3-3,3-3s3,1.3,3,3v5
		h-6V16z M13.2,23h54v24h-4V30c0-0.6-0.4-1-1-1c-5,0-9,4-9,9v5c-3.5,0.2-6.7,1.7-8.9,4H13.2V23z"/>
	<path class="st0" d="M40.2,41c3.3,0,6-2.7,6-6s-2.7-6-6-6s-6,2.7-6,6S36.9,41,40.2,41z M40.2,31c2.2,0,4,1.8,4,4s-1.8,4-4,4
		s-4-1.8-4-4S38,31,40.2,31z"/>
	<path class="st0" d="M29.2,30c0-0.6-0.4-1-1-1h-8c-0.6,0-1,0.4-1,1s0.4,1,1,1h8C28.8,31,29.2,30.6,29.2,30z"/>
</g>
</svg>
